Plot

A group of college students regret their decision to sneak into the cellar of a haunted asylum
on Halloween. One by one they encounter Smiley, the last of a flawed bloodline.

Runtime ..........: 1h 27mn
File Size ........: 809 MiB
Resolution .......: 704x396
IMDb URL .........: http://www.imdb.com/title/tt1535098/
Language .........: English
Video
ID : 0
Format : MPEG-4 Visual
Format profile : Advanced Simple@L5
Format settings, BVOP : Yes
Format settings, QPel : No
Format settings, GMC : No warppoints
Format settings, Matrix : Default (H.263)
Codec ID : XVID
Codec ID/Hint : XviD
Duration : 1h 27mn
Bit rate : 1 087 Kbps
Width : 704 pixels
Height : 396 pixels
Display aspect ratio : 16:9
Frame rate : 29.970 fps
Color space : YUV
Chroma subsampling : 4:2:0
Bit depth : 8 bits
Scan type : Progressive
Compression mode : Lossy
Bits/(Pixel*Frame) : 0.130
Stream size : 684 MiB (85%)
Writing library : XviD 1.2.1 (UTC 2008-12-04)

Audio
ID : 1
Format : AC-3
Format/Info : Audio Coding 3
Mode extension : CM (complete main)
Codec ID : 2000
Duration : 1h 27mn
Bit rate mode : Constant
Bit rate : 192 Kbps
Channel(s) : 2 channels
Channel positions : Front: L R
Sampling rate : 48.0 KHz
Bit depth : 16 bits
Compression mode : Lossy
Video delay : 33ms
Stream size : 121 MiB (15%)
Alignment : Split accross interleaves
Interleave, duration : 500 ms (14.98 video frames)
Interleave, preload duration : 500 ms
Language : English

Screens:
 
http://leetleech.org/images/94103296034226150216.png 
http://leetleech.org/images/68080209415016246025.png 
http://leetleech.org/images/04345132450421275016.png 
http://leetleech.org/images/85588277749653007007.png